PathFileType	4	(X/Y/Z)	/Users/mathieubourgeois/Desktop/Analyse/Traitement/Sujet_06/Data/Transformed_Sujet_06_velo100.trc
DataRate	CameraRate	NumFrames	NumMarkers	Units	OrigDataRate	OrigDataStartFrame	OrigNumFrames
120.000000	120.000000	4	36	mm	120.000000	466	1864
Frame#	Time	RFHD			RANE			STRN			LANI			LKNE			T10			RHUM			RWRB			C7			LFWT			LTOE			RTOE			LWRA			LBWT			RBWT			RFWT			LKNI			RKNI			RKNE			LANE			RANI			LHEE			RHEE			LHUM			LRAD			RRAD			RWRA			LWRB			LFHD			LBHD			RBHD			RSHO			LSHO			CLAV			LCAR			RCAR			
		X1	Y1	Z1	X2	Y2	Z2	X3	Y3	Z3	X4	Y4	Z4	X5	Y5	Z5	X6	Y6	Z6	X7	Y7	Z7	X8	Y8	Z8	X9	Y9	Z9	X10	Y10	Z10	X11	Y11	Z11	X12	Y12	Z12	X13	Y13	Z13	X14	Y14	Z14	X15	Y15	Z15	X16	Y16	Z16	X17	Y17	Z17	X18	Y18	Z18	X19	Y19	Z19	X20	Y20	Z20	X21	Y21	Z21	X22	Y22	Z22	X23	Y23	Z23	X24	Y24	Z24	X25	Y25	Z25	X26	Y26	Z26	X27	Y27	Z27	X28	Y28	Z28	X29	Y29	Z29	X30	Y30	Z30	X31	Y31	Z31	X32	Y32	Z32	X33	Y33	Z33	X34	Y34	Z34	X35	Y35	Z35	X36	Y36	Z36	

467	3.883333333333333	275.726318359375	1373.693603515625	97.23336029052729	-170.9620666503907	501.7312927246094	193.4303588867187	-25.86588859558106	1194.314086914062	39.31000518798821	74.02862548828125	335.1638488769531	-50.44506072998048	71.63475036621095	737.5126953125	-114.1209716796875	-185.5058746337891	1343.705200195312	47.68212509155263	188.2593994140625	1123.995727539062	240.539306640625	389.8915710449219	1024.862182617188	176.5443725585938	49.0383071899414	1454.703979492188	36.87065505981437	-171.3817291259766	1107.471069335938	-64.58936309814462	235.2242584228516	286.6293029785156	-130.8497772216797	-98.11190032958987	327.3037414550781	185.3580474853515	402.1553649902344	1025.818237304688	-130.6422271728516	-328.9333801269531	1139.033447265625	-7.166504859924427	-323.2436218261719	1137.228637695312	102.3066329956054	-165.1015930175782	1103.610717773438	147.6290283203124	58.37995910644531	692.4132080078125	-4.818737506866491	96.14029693603514	735.1110229492188	83.70932769775388	95.70139312744138	782.0494384765625	177.8571014404296	44.61267852783205	331.0575256347656	-129.9451446533203	-157.5203399658203	488.0271606445312	117.2098693847656	-4.608640670776357	312.9862670898438	-87.97021484375001	-226.5032348632813	529.0926513671875	149.8700256347656	177.0250701904297	1105.644409179688	-202.5446014404297	211.1630859375	1149.32958984375	-237.7642364501953	230.1522979736328	1157.634033203125	286.7973022460937	430.0557556152344	1036.76904296875	226.9759674072266	427.2762451171875	1026.760009765625	-189.2201385498047	275.4346923828125	1375.120849609375	-46.41297531127935	198.7814331054688	1504.47265625	-43.89585494995124	201.6253051757812	1521.971069335938	83.73423004150384	76.37423706054686	1419.310424804688	169.1139373779296	56.64194869995119	1407.091064453125	-110.5863342285157	62.26088333129882	1317.656494140625	34.67983627319329	478.5738830566406	1048.647094726562	-110.0144500732422	492.6524963378906	1041.909545898438	143.2004089355469	
468	3.891666666666667	275.6861572265625	1373.391479492188	98.53674316406244	-169.0218963623047	516.0697631835938	193.4018096923828	-25.87071609497071	1194.20849609375	39.82688140869134	68.68776702880859	322.4053344726562	-51.75537490844728	61.77811431884767	724.8834228515625	-115.0933837890625	-185.4274139404297	1343.580688476562	47.46298217773427	188.2051696777343	1123.673828125	240.6817779541015	390.1030578613281	1025.222290039062	176.2574005126953	49.19281387329101	1454.621215820312	37.94334793090812	-170.7583618164062	1107.048583984375	-64.98342895507821	229.4615325927735	271.61474609375	-130.9608154296875	-91.75118255615237	343.222900390625	185.2283935546875	402.3316345214844	1025.723876953125	-130.8584899902344	-328.3084716796875	1138.707397460938	-8.256916999817005	-323.2244567871094	1137.150512695312	101.274932861328	-165.1838836669922	1103.845581054688	147.2365417480468	54.46129989624023	679.1317138671875	-8.826021194458042	102.9323654174805	746.5820922851562	83.34457397460935	102.0454940795898	793.2830200195312	177.8129272460937	38.85344696044923	317.53466796875	-130.8476104736328	-153.5068054199219	502.5736389160156	117.331069946289	-10.76862239837645	300.5272521972656	-89.43260955810548	-222.7451934814453	543.8704833984375	150.671890258789	177.2564392089844	1106.042358398438	-202.3024291992188	211.4456481933594	1149.755981445312	-237.4584197998047	230.0747680664062	1157.183349609375	287.0230407714843	430.1137084960938	1036.811279296875	226.7418518066406	427.3824462890625	1026.744873046875	-189.4525299072266	275.7322387695312	1375.031005859375	-45.13009643554692	199.0767211914062	1504.413696289062	-42.57707214355476	201.6652374267578	1521.722045898438	85.06616973876946	76.19663238525389	1419.0048828125	170.0757751464843	56.91188049316408	1407.314086914062	-109.6262969970704	62.24326705932616	1317.567626953125	35.5256271362304	478.6892395019531	1048.525146484375	-110.264030456543	492.6019592285156	1041.988403320312	142.8939666748047	
469	3.9	275.6556091308594	1373.13037109375	99.88861083984369	-163.3306884765625	529.8246459960938	193.6011657714843	-25.76415252685547	1194.162353515625	40.39783477783196	62.83212280273438	310.830078125	-52.83203125000001	51.73447418212892	713.2401733398438	-116.2437820434571	-185.2978057861328	1343.49755859375	47.17094421386708	188.1477813720703	1123.442016601562	240.7195434570312	390.0911254882812	1025.272827148438	176.0980682373047	49.35110855102538	1454.63232421875	38.92394256591788	-170.0037689208984	1106.616333007812	-65.38883209228524	222.532943725586	256.860107421875	-131.0925445556641	-85.29521179199222	358.2866821289062	183.8916320800781	402.5114135742188	1025.687866210938	-131.0635528564453	-327.582763671875	1138.434692382812	-9.407176017761341	-323.1480712890625	1137.119873046875	100.1601791381835	-165.1675872802735	1104.15625	146.8122558593749	50.46209716796875	666.6869506835938	-12.83966541290287	109.6658325195312	758.153564453125	82.99088287353513	106.5044860839843	805.2124633789062	179.6329345703124	32.11562347412111	305.0557556152344	-131.5710601806641	-148.8783569335938	516.8524780273438	117.4211196899414	-17.60081672668456	288.8431396484375	-90.23706817626955	-218.4804840087891	557.4383544921875	151.3757934570312	177.5325469970703	1106.49267578125	-202.1079711914063	211.7961730957032	1150.285034179688	-237.1734161376953	229.9917755126953	1156.817260742188	287.2015380859374	430.1298217773438	1036.85400390625	226.5625457763672	427.5123901367188	1026.7666015625	-189.6164093017578	276.0503234863281	1374.906372070312	-43.75502395629888	199.5181274414062	1504.369140625	-41.29343414306648	201.8393249511719	1521.510864257812	86.4429626464843	75.9924850463867	1418.816772460938	171.0409240722655	57.2725067138672	1407.6220703125	-108.6569290161134	62.28239440917968	1317.556396484375	36.37001037597649	478.8002624511719	1048.418823242188	-110.4324111938477	492.5958557128906	1042.033325195312	142.65673828125	
470	3.908333333333333	275.7247009277344	1372.902099609375	101.2760620117187	-158.63623046875	543.2288818359375	193.6559906005859	-25.54384994506836	1194.23046875	40.99849700927727	55.32129669189454	299.7928771972656	-53.47722625732423	41.75565719604494	702.6725463867188	-117.4836502075196	-185.1124725341797	1343.453735351562	46.84920120239247	188.1112365722656	1123.293090820312	240.7034454345703	390.1100769042969	1025.367431640625	175.962890625	49.59101867675781	1454.658081054688	39.92657470703116	-169.2425689697266	1106.161010742188	-65.72416687011727	214.4402618408203	242.3380584716797	-131.274169921875	-75.34646606445315	376.1810913085938	185.0641021728515	402.6128234863281	1025.673461914062	-131.2046356201172	-326.8246765136719	1138.246704101562	-10.5244073867799	-322.985107421875	1137.173583984375	99.09091186523426	-165.1165771484375	1104.519409179688	146.4500427246093	46.12898254394531	655.2420654296875	-16.64823532104495	115.8463134765625	769.9261474609375	82.81272888183591	111.9284744262695	816.62939453125	179.7439575195312	24.99478912353517	294.2834777832031	-131.6214294433594	-143.7342834472657	530.5912475585938	117.4723510742187	-25.2555694580078	278.5237731933594	-90.75759124755861	-213.8157043457032	569.8143920898438	152.0070800781249	177.8215026855469	1106.97412109375	-202.01123046875	212.1207580566407	1150.838500976562	-236.9674987792969	229.9120483398437	1156.56201171875	287.3447265624999	430.1524658203125	1036.913452148438	226.3789367675781	427.6799011230469	1026.792846679688	-189.7480163574219	276.4802856445312	1374.771362304688	-42.31254196166997	200.0674591064453	1504.3330078125	-40.01213455200202	202.0309143066406	1521.37939453125	87.76372528076165	75.73374176025389	1418.71484375	171.9508209228515	57.69618225097658	1407.972045898438	-107.6987533569337	62.40204620361327	1317.602661132812	37.2287406921386	478.9096069335938	1048.3076171875	-110.566291809082	492.5909729003906	1042.076293945312	142.5065307617188	
